<svg xmlns="http://www.w3.org/2000/svg" xml:space="preserve" viewBox="0 0 682.7 682.7">
	<defs>
		<clipPath id="a" clipPathUnits="userSpaceOnUse">
			<path d="M0 512h512V0H0Z" data-original="#000000" />
		</clipPath>
	</defs>
	<g stroke="#000" stroke-linecap="round" stroke-linejoin="round" stroke-miterlimit="10" stroke-width="15"
		clip-path="url(#a)" transform="matrix(1.333 0 0 -1.333 0 682.7)">
		<path d="M494.1 184.7a248.5 248.5 0 1 1-10.3-28.2" data-original="#000000" />
		<path d="M134 400.9a189.4 189.4 0 1 0-21.2-21m210.4 31.9v-49.7" data-original="#000000" />
		<path
			d="M256 395v-16a16.8 16.8 0 1 1 33.6 0v16a16.8 16.8 0 1 1-33.6 0Zm-67.2-16v16a16.8 16.8 0 1 0 33.6 0v-16a16.8 16.8 0 1 0-33.6 0Zm-10.4-216.6v-49.7m67.2 32.9v-16.2a16.8 16.8 0 0 0-33.6 0v16.2a16.8 16.8 0 0 0 33.6 0Zm67.2-16.2v16.2a16.8 16.8 0 0 1-33.6 0v-16.2a16.8 16.8 0 0 1 33.6 0Zm33.6 33v-49.7m44 214.7v-49.7m-67.2 16.8v16.1a16.8 16.8 0 0 0 33.6 0v-16.1a16.8 16.8 0 0 0-33.6 0Zm-33.6 32.9v-49.7M256 327.4v-49.7m-33.6 49.7v-49.7m-67.2 32.9v-16.1a16.8 16.8 0 0 1 33.6 0v16.1a16.8 16.8 0 1 1-33.6 0Zm-33.6 16.8v-49.7m235.2-51.5V210a16.8 16.8 0 1 1 33.6 0v16a16.8 16.8 0 0 1-33.6 0ZM323.2 243v-49.7M256 226.2V210a16.8 16.8 0 1 1 33.6 0v16a16.8 16.8 0 1 1-33.6 0ZM222.4 243v-49.7M188.8 243v-49.7m-67.2 32.9V210a16.8 16.8 0 1 1 33.6 0v16a16.8 16.8 0 1 1-33.6 0Z"
			data-original="#000000" />
	</g>
</svg>